HIERARCHY
ROOT pelvis
{
  OFFSET 0 100 0
  CHANNELS 6 Xposition Yposition Zposition Zrotation Xrotation Yrotation
  JOINT pelvis_right_femur
  {
    OFFSET -10.78128 -3.44521 -0.5502486
    CHANNELS 3 Zrotation Xrotation Yrotation
    JOINT right_femur_tibia
    {
      OFFSET -0.8047443 -44.0398 -0.1307829
      CHANNELS 3 Zrotation Xrotation Yrotation
      JOINT right_tibia_foot
      {
        OFFSET 3.006224 -47.83518 -5
        CHANNELS 3 Zrotation Xrotation Yrotation
        End Site
        {
          OFFSET 0 -5 15
        }
      }
    }
  }
  JOINT pelvis_left_femur
  {
    OFFSET 10.78128 -3.44521 -0.5502486
    CHANNELS 3 Zrotation Xrotation Yrotation
    JOINT left_femur_tibia
    {
      OFFSET 0.8047443 -44.0398 -0.1307829
      CHANNELS 3 Zrotation Xrotation Yrotation
      JOINT left_tibia_foot
      {
        OFFSET -4.370144 -48.10324 -4.275266
        CHANNELS 3 Zrotation Xrotation Yrotation
        End Site
        {
          OFFSET 0 -5 15
        }
      }
    }
  }
  JOINT pelvis_spine1
  {
    OFFSET 0 6.468898 -3.129235
    CHANNELS 3 Zrotation Xrotation Yrotation
    JOINT spine1
    {
      OFFSET 0 23.15396 4.99043
      CHANNELS 3 Zrotation Xrotation Yrotation
      JOINT spine2
      {
        OFFSET 0 20.79997 -5.064912
        CHANNELS 3 Zrotation Xrotation Yrotation
        JOINT neck
        {
          OFFSET 0 14.38658 9.616178
          CHANNELS 3 Zrotation Xrotation Yrotation
          End Site
          {
            OFFSET 0 20 0
          }
        }
      }
      JOINT right_manubrium
      {
        OFFSET -5.722621 16.35077 3.967754
        CHANNELS 3 Zrotation Xrotation Yrotation
        JOINT right_clavicle
        {
          OFFSET -13.16364 1.694482 -4.693211
          CHANNELS 3 Zrotation Xrotation Yrotation
          JOINT right_humerus
          {
            OFFSET -28.5034 -0.3100689 -2.792744
            CHANNELS 3 Zrotation Xrotation Yrotation
            JOINT right_radius
            {
              OFFSET -25.15693 0.02248979 -1.271978
              CHANNELS 3 Zrotation Xrotation Yrotation
              End Site
              {
                OFFSET -15 0 0
              }
            }
          }
        }
      }
      JOINT left_manubrium
      {
        OFFSET 5.722621 16.35077 3.967754
        CHANNELS 3 Zrotation Xrotation Yrotation
        JOINT left_clavicle
        {
          OFFSET 13.16364 1.694482 -4.693211
          CHANNELS 3 Zrotation Xrotation Yrotation
          JOINT left_humerus
          {
            OFFSET 29.39168 -1.063119 -2.237045
            CHANNELS 3 Zrotation Xrotation Yrotation
            JOINT left_radius
            {
              OFFSET 24.59957 -0.9528479 0.9047498
              CHANNELS 3 Zrotation Xrotation Yrotation
              End Site
              {
                OFFSET 15 -0 -0
              }
            }
          }
        }
      }
    }
  }
}
MOTION
Frames: 7
Frame Time: 0.0416666666667
-768.217 102.6026 2744.353 -6.083786 -4.312773 -47.09289 7.570176 -6.212145 0.2118903 -0 11.44464 -0 -12.64639 3.381626 -1.823342 -2.14959 1.014167 -5.900367 -0 60.18315 -0 -2.094848 -4.19491 14.6271 -0.9455623 -5.070514 3.160128 1.025603 14.8328 -5.840601 1.643001 24.58074 6.003179 5.008953 -16.95415 6.199858 6.499547 -18.2015 14.79083 82.18872 15.55 -17.06321 -0 0 14.54768 -25.22317 15.88821 12.01427 10.25282 -24.72909 -5.377927 -98.20656 16.15248 20.2245 -0 0 0.2715641 24.35209 25.84528 -16.99766
-772.637 103.8814 2748.157 -6.125309 -4.642118 -48.00191 7.388304 -1.533682 1.088262 -0 10.66681 -0 -11.32236 0.2211299 -1.750146 -1.258103 -6.120958 -5.057513 -0 59.53059 -0 -2.252785 -3.453783 15.78122 -0.8855962 -5.108106 3.505283 0.8624301 15.00383 -5.572564 1.700508 24.45736 5.652246 4.806355 -16.68858 5.96738 6.477955 -19.05815 14.88499 81.57832 15.21637 -15.67351 -0 0 16.33423 -25.72546 16.30869 12.74797 9.838795 -24.12057 -5.410022 -99.00596 16.07796 22.13822 -0 0 2.023659 23.08588 26.14466 -15.60136
-776.7629 104.5285 2751.776 -6.432004 -4.982197 -48.97855 7.102681 2.722253 1.433113 -0 9.422661 -0 -10.30199 -4.104753 -1.883343 -0.1417449 -11.90158 -4.344735 -0 53.76623 -0 -2.195279 -3.599646 16.90937 -0.8050558 -5.166996 3.871788 0.6921304 15.22365 -5.325202 1.759931 24.30353 5.26016 4.575836 -16.3875 5.705985 6.421008 -19.98821 14.99172 81.03487 14.80725 -14.3007 -0 0 18.19896 -26.28592 16.79377 13.52306 9.38504 -23.54782 -5.477893 -99.772 15.92565 24.09844 -0 0 3.68468 21.73686 26.42417 -14.11693
-780.7073 104.4797 2755.337 -6.854895 -5.21329 -49.94509 6.76308 6.724148 1.293902 -0 8.531024 -0 -9.758309 -8.724439 -2.069312 0.9684542 -16.0843 -3.875313 -0 44.80774 -0 -1.967673 -4.10932 17.79155 -0.7049128 -5.253585 4.266335 0.5175694 15.48777 -5.101068 1.82323 24.11007 4.825972 4.31777 -16.05115 5.422154 6.352074 -20.99145 15.10925 80.52946 14.35948 -12.94091 -0 0 20.17517 -26.86226 17.35596 14.31558 8.902373 -23.00372 -5.56065 -100.5198 15.69903 26.11938 -0 0 5.273651 20.33366 26.68037 -12.57521
-784.5993 103.8752 2758.978 -6.913524 -5.126626 -50.79661 6.245502 10.47343 1.00612 -0 8.257582 -0 -9.270484 -12.60694 -2.04324 1.800998 -19.17164 -3.673477 -0 34.88356 -0 -1.698472 -4.618385 18.30591 -0.5909067 -5.369846 4.69174 0.3410931 15.78372 -4.899508 1.891923 23.87653 4.351703 4.035223 -15.6738 5.121907 6.294217 -22.0545 15.23409 80.02772 13.91179 -11.58469 -0 0 22.27819 -27.41566 17.99837 15.10119 8.401536 -22.47899 -5.636905 -101.258 15.41135 28.19492 -0 0 6.805144 18.90367 26.91516 -11.00727
-788.5478 102.9261 2762.809 -6.381501 -4.726823 -51.48018 5.446532 13.82464 0.9130326 -0 8.713949 -0 -8.40061 -15.09257 -1.699262 2.162578 -21.46423 -3.755692 -0 25.75399 -0 -1.509405 -5.007949 18.53792 -0.4762352 -5.501662 5.123428 0.1724636 16.08033 -4.725972 1.962796 23.62311 3.864797 3.744294 -15.27066 4.823977 6.252811 -23.10634 15.35332 79.54039 13.51182 -10.28407 -0 0 24.38551 -27.9029 18.67436 15.83186 7.908081 -21.98976 -5.692419 -101.9399 15.0958 30.19773 -0 0 8.199574 17.51917 27.11316 -9.492732
-792.6277 101.831 2766.893 -5.504084 -4.24888 -52.02044 4.446504 16.61827 1.084315 -0 10.15792 -0 -7.179572 -15.81464 -1.137644 2.002077 -22.89982 -4.102658 -0 18.57243 -0 -1.407338 -5.304333 18.70636 -0.377309 -5.623251 5.515539 0.02631368 16.33619 -4.586645 2.028253 23.38583 3.417663 3.474791 -14.8865 4.55915 6.220771 -24.03672 15.44997 79.11065 13.20352 -9.137893 -0 0 26.27189 -28.28567 19.2943 16.44741 7.463837 -21.5679 -5.721455 -102.4978 14.80156 31.93087 -0 0 9.339745 16.2942 27.25228 -8.154565
